<?xml version="1.0" standalone="no"?>
<!DOCTYPE svg PUBLIC "-//W3C//DTD SVG 20010904//EN"
 "http://www.w3.org/TR/2001/REC-SVG-20010904/DTD/svg10.dtd">
<svg version="1.0" xmlns="http://www.w3.org/2000/svg"
 width="260.000000pt" height="260.000000pt" viewBox="0 0 260.000000 260.000000"
 preserveAspectRatio="xMidYMid meet">
<metadata>
Created by potrace 1.14, written by Peter Selinger 2001-2017
</metadata>
<g transform="translate(0.000000,260.000000) scale(0.100000,-0.100000)"
fill="#000000" stroke="none">
<path d="M0 1300 l0 -1300 1300 0 1300 0 0 1300 0 1300 -1300 0 -1300 0 0
-1300z m1963 569 c12 -14 47 -36 78 -48 69 -27 109 -68 144 -144 21 -46 24
-61 14 -73 -29 -35 -82 -5 -107 60 -14 38 -30 58 -61 80 -23 15 -45 36 -49 45
-10 28 -24 31 -147 30 -143 -2 -154 -4 -165 -34 -5 -13 -25 -31 -44 -40 -47
-22 -50 -28 -75 -115 l-21 -74 25 -54 c39 -86 32 -112 -30 -112 -46 0 -55 31
-55 184 l0 139 57 53 c38 34 70 55 93 59 19 4 44 15 55 25 46 43 76 51 173 48
87 -3 96 -5 115 -29z m-1096 -31 c27 -33 75 -143 92 -213 13 -51 29 -87 45
-104 48 -50 28 -146 -23 -114 -9 5 -21 31 -28 57 -6 25 -23 60 -36 76 -25 29
-30 44 -42 127 -7 45 -27 60 -64 48 -22 -7 -26 -17 -36 -88 -5 -36 -16 -59
-41 -86 -27 -31 -34 -47 -34 -79 0 -43 -20 -72 -49 -72 -62 0 -53 100 12 136
11 6 19 36 26 92 8 66 16 90 37 114 14 17 32 49 41 70 26 64 65 79 100 36z
m241 -640 c7 -7 12 -23 12 -35 0 -33 27 -84 57 -109 27 -23 42 -75 43 -142 0
-37 6 -49 40 -83 23 -23 40 -49 40 -62 0 -35 -22 -59 -50 -55 -20 2 -27 13
-38 53 -8 28 -28 64 -45 82 -25 27 -33 46 -42 105 -15 102 -16 102 -270 104
-193 1 -259 -4 -317 -27 -27 -11 -28 -14 -28 -88 0 -83 -3 -91 -69 -161 -38
-41 -61 -46 -61 -13 0 9 7 24 16 34 9 10 25 60 35 111 15 71 25 98 44 116 14
12 27 35 31 50 26 120 51 139 109 82 l34 -32 170 -2 c100 0 176 3 184 9 7 6
23 25 36 43 23 33 48 41 69 20z m1053 -20 c7 -13 27 -40 45 -61 32 -34 34 -42
34 -106 0 -60 -4 -77 -32 -123 -17 -29 -37 -63 -44 -75 -8 -11 -30 -27 -51
-34 -21 -6 -52 -28 -69 -48 l-32 -36 -163 0 c-179 0 -198 5 -221 55 -9 22 -20
30 -39 30 -62 0 -88 19 -124 91 -33 64 -44 109 -28 109 22 0 94 -56 128 -100
22 -29 47 -62 57 -74 15 -20 25 -21 205 -22 103 -1 196 2 205 7 10 6 27 27 38
48 10 21 35 48 54 59 26 15 37 30 42 56 10 56 -5 124 -37 169 -36 50 -38 77
-4 77 15 0 29 -8 36 -22z"/>
</g>
</svg>
